<svg xmlns="http://www.w3.org/2000/svg" width="960" height="643.819" viewBox="0 0 960 643.819" xmlns:xlink="http://www.w3.org/1999/xlink" role="img" artist="Katerina Limpitsouni" source="https://undraw.co/"><g transform="translate(-412.641 -151)"><g transform="translate(1227.389 447.967)" opacity="0.5"><rect width="145.251" height="145.251" rx="14.12" transform="translate(0 0)" fill="#e6e6e6"/><path d="M1062.554,461.85h41.191s34.687,30.351,0,61.786h-41.191S1027.867,495.453,1062.554,461.85Z" transform="translate(-1010.524 -420.107)" fill="#b9b9c4" opacity="0.997"/><path d="M2.71,0A2.71,2.71,0,0,1,5.42,2.71V16.8A2.71,2.71,0,0,1,0,16.8V2.71A2.71,2.71,0,0,1,2.71,0Z" transform="translate(56.366 56.908)" fill="#3f3d56"/><path d="M2.71,0A2.71,2.71,0,0,1,5.42,2.71V16.8A2.71,2.71,0,0,1,0,16.8V2.71A2.71,2.71,0,0,1,2.71,0Z" transform="translate(83.465 56.908)" fill="#3f3d56"/><path d="M1028.224,446.19h0a6.5,6.5,0,0,1,6.5,6.5v5.42H1021.72v-5.42a6.5,6.5,0,0,1,6.5-6.5Z" transform="translate(-955.598 -361.099)" fill="#3f3d56"/></g><path d="M861.509,130.065a13.132,13.132,0,0,1,4.513-1.045,9.9,9.9,0,0,1,2.907.671,13.667,13.667,0,0,1,4.624,2.38,5.534,5.534,0,0,1,2.049,4.59,6.8,6.8,0,0,1-2.831,4.25,11.279,11.279,0,0,1-6.6,2.55c-2.7.043-5.253-1.173-7.862-1.9a22.576,22.576,0,0,0-5.831-.85,12.748,12.748,0,0,1-2.966-.187,3.179,3.179,0,0,1-2.278-1.751,4.488,4.488,0,0,1,0-2.55c.2-1.054.161-3.553,1.1-4.182.748-.51,3.4-.1,4.318-.179a42.616,42.616,0,0,0,8.857-1.8Z" transform="translate(240.832 79.786)" fill="#ed9da0"/><path d="M791.574,110.12a39.306,39.306,0,0,1,6.588,8.5c2.992,5.219,4.9,11.288,9.4,15.3a31.727,31.727,0,0,0,3.8,2.745,10.966,10.966,0,0,0,3.451,1.7c4.046.91,8.585-.357,12.529-1.7a79.344,79.344,0,0,0,11.33-5.1A9.351,9.351,0,0,0,840,136.223c.943,1.335,2.873,2.117,4.25,1.275-3.488,1.639-23.961,12.571-28.1,16.226a3.986,3.986,0,0,1-4.6.553,12.743,12.743,0,0,1-2.854-2.7c-.123-.14-6.232-4.482-8.519-6.854-1.062-1.1-9.707-10.489-10.7-11.823-.85-1.156-1.853-2.167-2.609-3.4-1.853-2.949-1.836-6.8-.773-10.106S789.594,113,791.574,110.12Z" transform="translate(250.086 82.621)" fill="#6c63ff"/><path d="M10.836,43.554a32.862,32.862,0,0,1-2.551-3.782A115.066,115.066,0,0,1,0,22.714c3.623.74,7.422,1.41,10.981.389a15.053,15.053,0,0,0,5.1-2.7q.334-.272.659-.551a15.912,15.912,0,1,1,8.488,10.4,8.144,8.144,0,0,0-.77.377l-.144.092a19.306,19.306,0,0,0-5.232,4.87c-2.667,3.793-3.593,9.079-1.443,13.28A18.814,18.814,0,0,1,10.836,43.554Z" transform="translate(1021.428 162.42)" fill="#ed9da0"/><path d="M761.2,193.176a7.429,7.429,0,0,1-7.327.179,14.105,14.105,0,0,1-3.162-2.661c-5.227-5.363-10.2-11.05-13.693-17.705a12.274,12.274,0,0,1-1.547-4.564,5.015,5.015,0,0,1,1.641-4.352c.325-.215,5.38-20.723,5.227-22.933-.451-6.545,1.139-13.039,2.711-19.405a52.054,52.054,0,0,1,2.992-9.435,26.81,26.81,0,0,1,1.309-2.456,65.3,65.3,0,0,1,5.347-7.437,9.655,9.655,0,0,1,3.646-3.264,3.6,3.6,0,0,1,.425-.153,9.248,9.248,0,0,1,3.247-.247c2.873.178,5.89.85,7.939,2.873s2.711,4.862,3.638,7.6a20.941,20.941,0,0,0,1.071,2.677c1.352,2.686,15.546,24.234,15.453,24.964a11.594,11.594,0,0,1-3.221,6.8c-2.04,1.963-4.879,2.932-6.91,4.9a18.525,18.525,0,0,0-3.655,5.95l-5.618,12.359a70.021,70.021,0,0,0-3.494,8.712C765.453,181.522,766.456,189.9,761.2,193.176Z" transform="translate(257.576 84.335)" fill="#6c63ff"/><path d="M692.928,275.247c-4.2.17-25.253,1.164-27.931,1.215-6.74.145-13.387,1.938-19.873,3.791a37.739,37.739,0,0,1-2.814-14.084,9,9,0,0,1,0-.96,9.665,9.665,0,0,1,1.2-3.893c5.95-1.7,22.176-3.077,24.182-3.017,5.822.178,11.483-2.431,17.263-1.7,1.176.116,13.94-20.23,14.441-21.93.68-2.142,2.49-3.663,2.941-5.771a4.211,4.211,0,0,0,.1-.654,26.623,26.623,0,0,1-6.128,4.709c-7.548,4.649-16.575,7.429-23.621,12.809-5.593,4.25-13.787,4.122-19.907.663a46.038,46.038,0,0,1-6.511-4.819c-3.111-2.55-22.549-16.244-25.687-17.858-3.893-1.972-7.811-3.927-12.146-4.394a8.95,8.95,0,0,1-.238-7.344,24.769,24.769,0,0,1,3.978-6.417,18.514,18.514,0,0,1,4.556-4.649,1.241,1.241,0,0,1,1.326,0l16.847,10.344,3.154,1.929c6.91,4.25,13.71,8.8,20.621,13.022.128.484,3.743.748,3.9.621,2.856-1.964,10.514-7.7,11.585-8.755.633-.8,21.08-26.868,22.856-28.415,3.221-2.822,6.7-5.5,10.778-6.8a18.223,18.223,0,0,0,4.105-1.487c1.641-1,3.145-2.864,5.023-2.431a4.25,4.25,0,0,1,1.861,1.173,59.17,59.17,0,0,1,6.333,7.25q4.547,5.788,9.086,11.585a13.388,13.388,0,0,0,3.562,3.527,9.767,9.767,0,0,0,6.587.85c-.3,3.153-2.8,5.754-3.842,8.746-.5,1.453-.7,3-1.071,4.488a36.77,36.77,0,0,1-2.015,5.448,79.452,79.452,0,0,1-7.021,13.8c-1.513,2.218-3.255,4.25-4.964,6.332-6.74,8.134-22.576,29.512-24.65,31.05C698.547,274.882,695.64,275.137,692.928,275.247Z" transform="translate(276.763 72.303)" fill="#e6e6e6"/><path d="M16.085,77.32,1.117,35.172A19.274,19.274,0,0,1,12.833,10.557L26.69,5.636A49.26,49.26,0,0,1,72.835,12.7L108.592,0s5.376,1.014,6.371,3.818-2.391,7.394-2.391,7.394L82.243,21.983a49.267,49.267,0,0,1,7.4,13.61l.571,1.605,33.67-11.955a5.949,5.949,0,1,1,3.98,11.212L94.2,48.413l.369,1.038A19.283,19.283,0,0,1,82.851,74.07L40.7,89.034A19.252,19.252,0,0,1,16.085,77.32Z" transform="translate(1161.476 520.592)" fill="#090814"/><ellipse cx="361.247" cy="28.05" rx="361.247" ry="28.05" transform="translate(412.641 686.757)" fill="#f8f8f8"/><ellipse cx="233.748" cy="30.404" rx="233.748" ry="30.404" transform="translate(901.376 734.01)" fill="#f8f8f8"/><path d="M725.613,707.933a64.28,64.28,0,0,1-21-3c-12.178-4.174-21.026-13.42-23.091-24.131-2.32-12.081,3.819-25.275,16.843-36.2,16.638-14.021,37.16-21.376,57.008-28.488,12.639-4.53,25.708-9.213,37.422-15.543,42.245-22.821,69.383-70.383,67.529-118.353-.581-15-3.812-30.093-6.937-44.689-2.04-9.414-4.153-19.162-9.411-26.782a73.259,73.259,0,0,0-9.218-10.239,98.272,98.272,0,0,1-8.838-9.5c-19.39-24.857-11.876-59.651,1.621-83.925,2.783-5,5.858-9.865,8.934-14.724,6.214-9.816,12.084-19.088,15.558-29.467,3.674-10.953,4.4-22.82,4.617-31.934a263.876,263.876,0,0,0-5.97-62.668c-1.821-8.451-4.263-17.064-9.774-22.9-4.622-4.892-13.069-7.783-18.655-3.922a26.155,26.155,0,0,0-5.326,5.794L784.373,190.39l-8.142-6.144,32.453-43c2.167-2.852,4.488-5.907,7.77-8.172,10.166-7.026,24.186-2.818,31.865,5.31,7.23,7.653,10.2,17.855,12.328,27.741a274.069,274.069,0,0,1,6.2,65.077c-.237,9.828-1.035,22.683-5.142,34.926-3.865,11.548-10.345,21.783-16.611,31.682-2.972,4.7-5.949,9.391-8.638,14.225-11.364,20.439-18.837,51.742-2.493,72.694a89.25,89.25,0,0,0,7.947,8.5,82.041,82.041,0,0,1,10.462,11.719c6.4,9.281,8.838,20.515,10.986,30.427,3.219,15.031,6.544,30.561,7.158,46.443,2,51.768-27.285,103.094-72.873,127.721-12.393,6.7-25.832,11.513-38.829,16.171-19.872,7.121-38.642,13.848-53.884,26.693-4.79,4.019-15.665,14.628-13.391,26.469,1.354,7.02,7.784,13.463,16.382,16.41,8.48,2.906,18.189,2.637,27.407,2.113a537.689,537.689,0,0,0,69.883-8.63l3.742-.711c18.465-3.5,35.906-6.8,51.248-16.062a7.251,7.251,0,0,0,2.7-2.342,12.519,12.519,0,0,0,.59-3.782c.426-5.81.865-11.8-1.03-16.844a40.4,40.4,0,0,0-5.268-8.807,52.2,52.2,0,0,1-6.159-10.238c-2.966-7.126-3.21-15.647-.724-25.328,2.517-9.826,7.256-19.122,11.064-26.59,4.2-8.242,8.376-16.284,13.281-24.039,13.983-22.07,32.888-40.1,51.17-57.532l7.039,7.382c-17.837,17.009-36.281,34.6-49.591,55.606-4.669,7.383-8.724,15.194-12.811,23.216-4.552,8.929-8.2,16.4-10.271,24.493-1.923,7.49-1.835,13.839.261,18.874a43.912,43.912,0,0,0,5.044,8.232c2.418,3.388,4.919,6.892,6.515,11.147,2.681,7.133,2.136,14.586,1.654,21.161a18.512,18.512,0,0,1-2.163,8.527,17.263,17.263,0,0,1-6.285,5.741c-16.661,10.063-35.83,13.7-54.368,17.209l-3.727.708a547.944,547.944,0,0,1-71.216,8.795C732.53,707.774,729.082,707.933,725.613,707.933Z" transform="translate(265.735 79.712)" fill="#090814"/><path d="M858.451,124.815a12.75,12.75,0,0,1,4.513-1.045,10.2,10.2,0,0,1,2.907.663,13.685,13.685,0,0,1,4.624,2.389,5.516,5.516,0,0,1,2.049,4.59,6.817,6.817,0,0,1-2.831,4.25,11.237,11.237,0,0,1-6.6,2.55c-2.7,0-5.253-1.173-7.862-1.9a22.566,22.566,0,0,0-5.831-.85,12.751,12.751,0,0,1-2.966-.2,3.171,3.171,0,0,1-2.278-1.742,4.573,4.573,0,0,1,0-2.507c.2-1.054.17-3.561,1.1-4.19.748-.5,3.4-.093,4.318-.17A43.741,43.741,0,0,0,858.451,124.815Z" transform="translate(241.29 80.573)" fill="#ed9da0"/><path d="M833.366,122.064c-3.519,1.615-36.838-.521-40.4-1.394-3.043-3.587-7.981-5.168-11.653-8.092-2.941-2.346-5.049-5.542-7.556-8.355s-3.535-4.145-7.283-4.443a13.948,13.948,0,0,0-4.309.459,10.047,10.047,0,0,0-3.936,1.7,8.025,8.025,0,0,0-2.8,5.491,18.426,18.426,0,0,0,.62,6.273c.338,1.706,31.414,19.122,34.4,21.018s6.749,3.085,10.064,1.844c10.2-3.8,21.692-2.031,32.512-1.088-.068-.2.374-.391.5-.561a9.138,9.138,0,0,0,1.7-6.366A31.47,31.47,0,0,0,833.366,122.064Z" transform="translate(254.585 84.175)" fill="#6c63ff"/><path d="M8.181,45.614c1.164-.978,1.562-2.842,2.009-4.19C6.073,37.6.222,32.7.021,27.39c-.21-5.519,1.118-10.159,4.938-14.324-2.678-1.7-3.312-5.484-1.829-8.2S7.758.506,10.944.1c2.481-.319,5.242.12,6.977,1.836a10.681,10.681,0,0,1,2.242,4.181c.251.705.5,1.4.747,2.111a2.134,2.134,0,0,1,.168,1.3.914.914,0,0,1-.414.5c2.968-.164,9.537-.314,11.255,1.49a7.529,7.529,0,0,1,1.746,7.367,4.78,4.78,0,0,1,2.451,3.5,4.184,4.184,0,0,1-.962,3.882c.412-2.042-1.186-4.079-2.967-5.279s-5.1,2.289-7.279,2.482a9.336,9.336,0,0,1-2.127.018c-.876-.114-.109-.227-1.7,2.042-1.365,1.973-5.1,4.254-8.087,5.9a5.629,5.629,0,0,0-.48,1.778c-.269,2.907,2.021,5.683,1.5,8.556A5.145,5.145,0,0,1,9,45.687,4.624,4.624,0,0,1,8.181,45.614ZM20.009,10.063h0Z" transform="translate(1034.17 151)" fill="#090814"/><g transform="translate(1112.671 490.783)"><path d="M10.673,11.538A14.345,14.345,0,1,0,23.337,14.22a29.325,29.325,0,0,1,2.539-4.981L26.6,4.7,20.232.154,12.29,0C12.99,4.221,11.419,9.408,10.673,11.538Z" transform="translate(86.517 42.647) rotate(180)" fill="#ed9da0"/><path d="M0,21.679l9.574,4.763L20.944,5.4,11.093,0Z" transform="translate(5.546 231.649)" fill="#ed9da0"/><path d="M0,24.351h9.2L11.362,0H0Z" transform="translate(71.387 237.076)" fill="#ed9da0"/><path d="M4.9.657S.668-2.582.668,5.329L0,31.474l7.454,24.7,4.339-8.01-1.78-17.353Z" transform="translate(36.965 62.147)" fill="#6c63ff"/><path d="M77.293,9.064s4.9,23.874-1.309,43.467l-3.432,75.332-12.582-.98L55.561,71,51.312,43.219,42.489,68.545,13.4,122.143,0,111.686S14.849,71.169,25.819,62.663L31.321,0Z" transform="translate(9.79 125.249)" fill="#090814"/><path d="M47.891,18.023,0,14.933,3.6,0l43.77,9.783Z" transform="translate(40.079 122.674)" fill="#d6d6e3"/><path d="M25.365,4.171l3-4.171A120.794,120.794,0,0,1,40.718,5.617l.636,3.907,15.607,96L28.592,104.3l-7.725-.165-2.528-5.667-3.117,5.548-7.544-.161L0,99.4,7.565,76.261l2.448-21.138L6.23,35.209S1.47,16.922,19.8,7.06Z" transform="translate(33.072 31.932)" fill="#6c63ff"/><path d="M22.931,14.918a4.9,4.9,0,0,1-6.1-4.4L0,6.012,6.77,0,21.718,5.2a4.93,4.93,0,0,1,1.213,9.715Z" transform="translate(99.447 93.856)" fill="#ed9da0"/><path d="M59.826,59.727a2.871,2.871,0,0,1-2.332.187L29.807,49.405A29.564,29.564,0,0,1,13.891,35.993L2.347,15.4A9.242,9.242,0,0,1,16.137,3.087L36.122,34.763,61.272,49.51A2.878,2.878,0,0,1,62.5,52.571l-1.251,5.3a2.872,2.872,0,0,1-.873,1.473,2.842,2.842,0,0,1-.547.389Z" transform="translate(55.016 46.501)" fill="#6c63ff"/><path d="M13.128,0,23.689,5.4s16.525,3.939,5.766,7.213-15.6.947-15.6.947S-.224,14.294,0,10.367,2.937.919,2.937.919,12.357,3.38,13.128,0Z" transform="translate(67.608 259.268)" fill="#090814"/><path d="M13.938,0l9.745,4.922s16.522,3.939,5.765,7.212-15.6.947-15.6.947S-.224,13.812,0,9.886,2.937.438,2.937.438,13.167,3.38,13.938,0Z" transform="matrix(0.961, 0.276, -0.276, 0.961, 3.832, 250.442)" fill="#090814"/><path d="M674.462,519.609a6.716,6.716,0,0,1,.8-2.494,2.094,2.094,0,0,1,2.268-1c1.33.416,1.776,2.472,3.167,2.54.937.045,1.61-.907,1.9-1.8a5.483,5.483,0,0,1,1.156-2.54,4.309,4.309,0,0,1,1.648-.756c3.228-1.02,6.561-2.9,7.634-6.115a3.659,3.659,0,0,0,.174-2.048c-.491-2.033-3.024-2.646-4.951-3.379s-3.779-1.988-5.669-2.94a9.316,9.316,0,0,0-6.161-1.141,32.1,32.1,0,0,0-3.107,1.157c-3.129,1.088-6.962.582-9.388,2.842a9.7,9.7,0,0,0-2.268,3.961c-1.693,4.7-2.767,10.28.038,14.407,1.731,2.547,3.409,5.457,6.735,5.767C672.316,526.4,673.85,522.89,674.462,519.609Z" transform="translate(-604.968 -497.777)" fill="#090814"/></g><g transform="translate(461.939 249.496)"><rect width="14.417" height="2.544" transform="translate(230.278 461.334)" fill="#b6b3c5"/><rect width="14.417" height="2.544" transform="translate(357.907 461.758)" fill="#b6b3c5"/><path d="M322.575,370.945a20.773,20.773,0,0,1-40.991,0H229.146V484.583H375.012V370.945Z" transform="translate(-0.601 -22.827)" fill="#d6d6e3"/><rect width="145.862" height="3.956" transform="translate(228.97 452.752)" fill="#090814"/><path d="M594.823,373H8.132A8.14,8.14,0,0,1,0,364.867V30.042A8.14,8.14,0,0,1,8.132,21.91H594.823a8.14,8.14,0,0,1,8.132,8.132V364.867A8.14,8.14,0,0,1,594.823,373Z" transform="translate(0 -21.91)" fill="#090814"/><rect width="574.123" height="323.952" transform="translate(13.661 12.871)" fill="#2f2e41"/></g></g></svg>